<?xml version="1.0" encoding="UTF-8" standalone="no"?>
<svg
   class=""
   fill="none"
   height="24"
   stroke="currentColor"
   stroke-linecap="round"
   stroke-linejoin="round"
   stroke-width="2"
   viewBox="0 0 24 24"
   width="24"
   version="1.1"
   id="svg1"
   xml:space="preserve"
   xmlns="http://www.w3.org/2000/svg"
   xmlns:svg="http://www.w3.org/2000/svg"><defs
     id="defs1" /><path
     id="path2"
     style="color:#000000;fill:#979797;stroke-width:0;stroke-dasharray:none"
     d="m 11.792969,1.6738281 c -5.5608552,0 -10.0605471,4.6639862 -10.0605471,10.3710939 0,5.707107 4.4996919,10.371094 10.0605471,10.371094 5.560854,0 10.060547,-4.663987 10.060547,-10.371094 0,-5.7071077 -4.499693,-10.3710939 -10.060547,-10.3710939 z m 0,1.4140625 c 1.750573,0 3.379907,0.5392457 4.742187,1.4648438 L 6.046875,18.742188 c -1.77891,-1.636959 -2.9003906,-4.025531 -2.9003906,-6.697266 0,-4.9669155 3.8756924,-8.9570314 8.6464846,-8.9570314 z m 5.841797,2.3476563 c 1.72375,1.6344453 2.804687,3.9855107 2.804687,6.6093751 C 20.439453,17.011837 16.56376,21 11.792969,21 10.088949,21 8.499971,20.489829 7.1601562,19.609375 Z" /></svg>
