<?xml version="1.0" encoding="UTF-8" standalone="no"?>
<svg
   class="feather feather-edit-2"
   fill="none"
   height="24"
   stroke="currentColor"
   stroke-linecap="round"
   stroke-linejoin="round"
   stroke-width="2"
   viewBox="0 0 24 24"
   width="24"
   version="1.1"
   id="svg1"
   sodipodi:docname="check.svg"
   inkscape:version="1.3 (0e150ed6c4, 2023-07-21)"
   xml:space="preserve"
   xmlns:inkscape="http://www.inkscape.org/namespaces/inkscape"
   xmlns:sodipodi="http://sodipodi.sourceforge.net/DTD/sodipodi-0.dtd"
   xmlns="http://www.w3.org/2000/svg"
   xmlns:svg="http://www.w3.org/2000/svg"><defs
     id="defs1" /><sodipodi:namedview
     id="namedview1"
     pagecolor="#ffffff"
     bordercolor="#999999"
     borderopacity="1"
     inkscape:showpageshadow="0"
     inkscape:pageopacity="0"
     inkscape:pagecheckerboard="0"
     inkscape:deskcolor="#d1d1d1"
     inkscape:zoom="33.875"
     inkscape:cx="12"
     inkscape:cy="12"
     inkscape:window-width="1920"
     inkscape:window-height="1009"
     inkscape:window-x="-8"
     inkscape:window-y="-8"
     inkscape:window-maximized="1"
     inkscape:current-layer="svg1" /><path
     d="M 20.803705,5.696783 C 21.242856,5.2080404 21.07598,4.4566928 20.616825,4.0275611 20.157597,3.5983586 19.339722,3.8747752 18.943391,4.3951005 L 8.6497804,17.909114 4.5694059,14.669912 C 4.077723,14.27959 3.3585829,14.579919 2.917243,15.0711 c -0.4391532,0.488744 -0.06016,1.322464 0.3989946,1.751594 l 4.7973069,3.809011 c 0.4592287,0.429203 1.3009477,0.299422 1.7382782,-0.187291 z M 7.3151162,21.52029 2.5178091,17.711279 C 1.5989709,16.852518 1.2030237,15.275542 2.0853378,14.29359 2.9680206,13.311233 4.4489914,12.922568 5.3678288,13.781328 L 8.6162694,16.242987 18.111456,3.6175597 c 0.794464,-1.0563728 2.385326,-1.3377516 3.304163,-0.4789918 0.918837,0.8587608 1.102304,2.3537713 0.219986,3.3357224 L 10.683759,21.221953 c -0.9701872,0.987253 -2.3308823,1.092928 -3.3686432,0.298334 z"
     id="path1"
     style="display:inline;fill:#979797;stroke:none;stroke-width:0.319621;stroke-dasharray:none;stroke-opacity:1"
     sodipodi:nodetypes="csscssccccccscssscccc" /></svg>
