<?xml version="1.0" encoding="UTF-8" standalone="no"?>
<svg
   class="feather feather-edit-2"
   fill="none"
   height="24"
   stroke="currentColor"
   stroke-linecap="round"
   stroke-linejoin="round"
   stroke-width="2"
   viewBox="0 0 24 24"
   width="24"
   version="1.1"
   id="svg1"
   sodipodi:docname="chevron-right.svg"
   inkscape:version="1.3 (0e150ed6c4, 2023-07-21)"
   xml:space="preserve"
   xmlns:inkscape="http://www.inkscape.org/namespaces/inkscape"
   xmlns:sodipodi="http://sodipodi.sourceforge.net/DTD/sodipodi-0.dtd"
   xmlns="http://www.w3.org/2000/svg"
   xmlns:svg="http://www.w3.org/2000/svg"><defs
     id="defs1" /><sodipodi:namedview
     id="namedview1"
     pagecolor="#ffffff"
     bordercolor="#999999"
     borderopacity="1"
     inkscape:showpageshadow="0"
     inkscape:pageopacity="0"
     inkscape:pagecheckerboard="0"
     inkscape:deskcolor="#d1d1d1"
     inkscape:zoom="33.875"
     inkscape:cx="12"
     inkscape:cy="12"
     inkscape:window-width="1920"
     inkscape:window-height="1009"
     inkscape:window-x="-8"
     inkscape:window-y="-8"
     inkscape:window-maximized="1"
     inkscape:current-layer="svg1" /><path
     d="M 9.0616773,21.070988 C 8.5363606,21.596304 7.6949403,21.614416 7.1878635,21.107338 6.6807024,20.600177 6.714615,19.769852 7.2242155,19.233524 L 13.978367,12.12513 7.2296489,5.346892 C 6.7236381,4.8386679 6.7385031,4.0005768 7.2664368,3.4726431 7.7917549,2.947325 8.6331738,2.9292133 9.1402507,3.4362901 L 16.475107,11.28037 c 0.507161,0.507161 0.486784,1.350678 -0.03635,1.873815 z M 17.430191,10.325288 10.095334,2.4812069 C 9.0805928,1.4664657 7.4031414,1.498477 6.347706,2.5539124 5.2918358,3.6097826 5.2598242,5.2872342 6.2745654,6.3019754 l 5.8299466,5.8594666 -5.7990685,6.153312 c -1.0237044,1.086239 -1.0878412,2.733364 -0.0731,3.748105 1.0147414,1.014741 2.6926294,0.982294 3.748064,-0.07314 l 7.3771205,-7.916761 c 1.020265,-1.214742 1.274549,-2.401452 0.07266,-3.74767 z"
     id="path1"
     style="display:inline;fill:#979797;stroke:none;stroke-width:0.363074;stroke-dasharray:none;stroke-opacity:1"
     sodipodi:nodetypes="csscssccccccscssscccc" /></svg>
