<?xml version="1.0" encoding="UTF-8" standalone="no"?>
<!-- Created with Inkscape (http://www.inkscape.org/) -->

<svg
   width="360"
   height="360"
   viewBox="0 0 360 360"
   version="1.1"
   id="svg5"
   inkscape:version="1.2.1 (9c6d41e410, 2022-07-14)"
   sodipodi:docname="loading.svg"
   xmlns:inkscape="http://www.inkscape.org/namespaces/inkscape"
   xmlns:sodipodi="http://sodipodi.sourceforge.net/DTD/sodipodi-0.dtd"
   xmlns="http://www.w3.org/2000/svg"
   xmlns:svg="http://www.w3.org/2000/svg">
  <sodipodi:namedview
     id="namedview7"
     pagecolor="#ffffff"
     bordercolor="#999999"
     borderopacity="1"
     inkscape:showpageshadow="0"
     inkscape:pageopacity="0"
     inkscape:pagecheckerboard="0"
     inkscape:deskcolor="#d1d1d1"
     inkscape:document-units="px"
     showgrid="false"
     inkscape:zoom="2.4666667"
     inkscape:cx="179.7973"
     inkscape:cy="180"
     inkscape:window-width="1920"
     inkscape:window-height="1017"
     inkscape:window-x="-8"
     inkscape:window-y="627"
     inkscape:window-maximized="1"
     inkscape:current-layer="layer1" />
  <defs
     id="defs2" />
  <g
     inkscape:label="Layer 1"
     inkscape:groupmode="layer"
     id="layer1">
    <path
       id="path1029"
       style="display:inline;fill:#000000;stroke-width:0.686646"
       d="M 48.208956,80.484341 A 165.54831,165.17711 0 0 0 37.978922,263.67789 l -19.583175,18.95371 39.306088,11.15059 39.303583,11.15093 -9.973376,-39.5376 -9.974802,-39.53869 -18.513989,17.9179 A 137.95692,137.64758 0 0 1 70.213052,97.093475 137.95692,137.64758 0 0 1 239.71552,55.946392 L 256.621,33.650036 A 165.54831,165.17711 0 0 0 48.208956,80.484341 Z m 214.785634,-25.417463 9.97337,39.537617 9.9748,39.538695 18.514,-17.91791 a 137.95692,137.64758 0 0 1 -11.6698,146.68124 137.95692,137.64758 0 0 1 -169.50248,41.14709 L 103.379,326.34997 A 165.54831,165.17711 0 0 0 311.79104,279.51565 165.54831,165.17711 0 0 0 322.02108,96.322115 l 19.58317,-18.953716 -39.3061,-11.150581 z" />
  </g>
</svg>
